<svg xmlns="http://www.w3.org/2000/svg" viewBox="0 0 32 31"><path fill="#FFF" fill-rule="evenodd" d="M15.681 0c-2.167 0-4.202.405-6.103 1.214-1.902.81-3.56 1.913-4.972 3.311a15.812 15.812 0 0 0-3.363 4.92C.414 11.327 0 13.34 0 15.485c0 2.144.414 4.157 1.243 6.038a15.812 15.812 0 0 0 3.363 4.92c1.413 1.398 3.07 2.507 4.972 3.327 1.901.82 3.936 1.23 6.103 1.23 2.168 0 4.202-.41 6.104-1.23 1.902-.82 3.559-1.929 4.972-3.327a15.812 15.812 0 0 0 3.363-4.92c.828-1.881 1.243-3.894 1.243-6.039 0-2.144-.415-4.157-1.243-6.039a15.812 15.812 0 0 0-3.363-4.92c-1.413-1.398-3.07-2.501-4.972-3.31C19.883.404 17.849 0 15.68 0zm3.697 10.69h-2.326c-.149 0-.287.085-.415.253a.963.963 0 0 0-.19.6v1.702h2.931l-.414 2.397h-2.518v7.19h-2.773v-7.19h-2.518v-2.397h2.518v-1.419c0-1.01.319-1.876.956-2.602.638-.725 1.445-1.088 2.423-1.088h2.326v2.555z"/></svg>