<svg xmlns="http://www.w3.org/2000/svg" viewBox="0 0 32 32"><path fill="#FFF" fill-rule="evenodd" d="M1.267 22.217A15.67 15.67 0 0 1 0 16c0-2.167.422-4.239 1.267-6.217.844-1.977 1.98-3.68 3.408-5.108 1.428-1.428 3.13-2.564 5.108-3.408A15.67 15.67 0 0 1 16 0c2.167 0 4.239.422 6.217 1.267 1.977.844 3.68 1.98 5.108 3.408 1.428 1.428 2.564 3.13 3.408 5.108A15.67 15.67 0 0 1 32 16a15.67 15.67 0 0 1-1.267 6.217c-.844 1.977-1.98 3.68-3.408 5.108-1.428 1.428-3.13 2.564-5.108 3.408A15.67 15.67 0 0 1 16 32a15.67 15.67 0 0 1-6.217-1.267c-1.977-.844-3.68-1.98-5.108-3.408-1.428-1.428-2.564-3.13-3.408-5.108zm7.916-1.784c0 .711.248 1.317.742 1.817s1.097.75 1.808.75h8.534c.71 0 1.314-.25 1.808-.75s.742-1.106.742-1.817v-4.2h-3.134a3.685 3.685 0 0 1-1.358 2 3.73 3.73 0 0 1-2.325.784 3.695 3.695 0 0 1-2.317-.784 3.883 3.883 0 0 1-1.383-2H9.183v4.2zm0-6.333H12.3a3.797 3.797 0 0 1 1.383-1.983A3.747 3.747 0 0 1 16 11.35c.867 0 1.642.256 2.325.767a3.606 3.606 0 0 1 1.358 1.983h3.134v-2.2a2.46 2.46 0 0 0-.742-1.808 2.46 2.46 0 0 0-1.808-.742h-8.534a2.46 2.46 0 0 0-1.808.742 2.46 2.46 0 0 0-.742 1.808v2.2zm5.3-.433a2.042 2.042 0 0 0-.616 1.5c0 .589.208 1.091.625 1.508.416.417.92.625 1.508.625.589 0 1.092-.208 1.508-.625.417-.417.625-.92.625-1.508 0-.59-.208-1.092-.625-1.509A2.055 2.055 0 0 0 16 13.033a2.07 2.07 0 0 0-1.517.634z"/></svg>