<?xml version="1.0" encoding="UTF-8"?><svg id="Layer_1" xmlns="http://www.w3.org/2000/svg" viewBox="0 0 32 32"><defs><style>.cls-1{fill:#fff;}</style></defs><path class="cls-1" d="M16,0C7.2,0,0,7.2,0,16s7.2,16,16,16,16-7.2,16-16S24.8,0,16,0ZM23.27,14.81s-1.01-.04-1.76-.24c-1.05-.28-1.72-.71-1.72-.71,0,0-.47-.31-.5-.33v5.91c0,.33-.09,1.15-.35,1.84-.23.59-.56,1.13-.97,1.61,0,0-.64.8-1.77,1.33-1.02.48-1.92.47-2.18.48,0,0-1.55.06-2.94-.89h0s0,0,0,0c-.47-.33-.89-.73-1.25-1.18-.44-.56-.71-1.23-.78-1.43h0c-.11-.34-.34-1.14-.31-1.92.06-1.37.51-2.21.64-2.42.32-.58.74-1.09,1.23-1.52,1.15-.96,2.64-1.4,4.13-1.21v2.94c-.25-.08-.5-.12-.75-.12-1.34,0-2.43,1.1-2.43,2.45s1.09,2.45,2.43,2.45c.42,0,.83-.11,1.19-.31.71-.4,1.17-1.13,1.23-1.94h0s0-.02,0-.03c0-.02,0-.04,0-.05,0-.15,0-.29,0-.44V7.92h2.88s-.03.28.04.7h0c.09.51.32,1.25.96,1.97.25.27.54.52.85.72.11.07.22.13.33.19.74.37,1.46.48,1.81.44v2.86Z"/></svg>