<svg xmlns="http://www.w3.org/2000/svg" viewBox="0 0 32 32"><path fill="#FFF" fill-rule="evenodd" d="M16 0c-2.211 0-4.287.418-6.228 1.253A16.084 16.084 0 0 0 4.7 4.671C3.257 6.115 2.114 7.807 1.27 9.75.422 11.692 0 13.77 0 15.984c0 2.213.423 4.291 1.268 6.234.846 1.942 1.99 3.635 3.431 5.078 1.442 1.443 3.133 2.588 5.073 3.434C11.712 31.577 13.79 32 16 32c2.211 0 4.287-.423 6.228-1.27 1.94-.846 3.631-1.99 5.073-3.434 1.442-1.443 2.585-3.136 3.43-5.078.846-1.943 1.269-4.02 1.269-6.234 0-2.214-.423-4.292-1.268-6.234a16.357 16.357 0 0 0-3.431-5.079 16.084 16.084 0 0 0-5.073-3.418C20.288.418 18.21 0 16 0zm7.105 13.232v.435c0 1.069-.197 2.15-.593 3.241a9.245 9.245 0 0 1-1.745 2.958c-.768.88-1.712 1.599-2.832 2.156-1.12.557-2.415.835-3.886.835a8.66 8.66 0 0 1-2.585-.384 10.196 10.196 0 0 1-2.321-1.053c.132 0 .263.006.395.017a6.13 6.13 0 0 0 2.52-.35 6.797 6.797 0 0 0 1.827-1.004 3.09 3.09 0 0 1-1.86-.668 3.388 3.388 0 0 1-1.137-1.604c.11.022.214.039.313.05.099.01.192.017.28.017.154 0 .302-.012.444-.034.143-.022.28-.044.412-.067a3.211 3.211 0 0 1-1.828-1.12 3.108 3.108 0 0 1-.74-2.055v-.033c.22.111.45.2.691.267.242.067.494.112.757.134a3.33 3.33 0 0 1-1.02-1.153 3.173 3.173 0 0 1-.396-1.554c0-.29.039-.574.116-.852.077-.279.18-.54.313-.786a9.44 9.44 0 0 0 2.88 2.39 8.569 8.569 0 0 0 3.705 1.02 1.728 1.728 0 0 1-.082-.385 3.94 3.94 0 0 1-.016-.351c0-.891.313-1.654.938-2.29.626-.634 1.378-.952 2.256-.952.46 0 .889.09 1.284.268.395.178.747.423 1.054.735a5.793 5.793 0 0 0 1.037-.301c.34-.134.664-.29.972-.468a2.9 2.9 0 0 1-.527 1.02c-.242.3-.527.562-.856.785.307-.045.614-.112.922-.2.307-.09.603-.201.889-.335a4.84 4.84 0 0 1-.708.92 7.077 7.077 0 0 1-.873.751z"/></svg>