<svg xmlns="http://www.w3.org/2000/svg" viewBox="0 0 32 31"><path fill="#FFF" fill-rule="evenodd" d="M18.295 15.232l-3.666-1.703c-.148-.084-.281-.09-.398-.016-.117.074-.175.205-.175.394v3.186c0 .168.058.289.175.362.117.074.25.069.398-.016l3.666-1.67c.17-.085.255-.18.255-.285 0-.105-.085-.189-.255-.252zM15.68 0c-2.167 0-4.202.405-6.103 1.214-1.902.81-3.56 1.913-4.972 3.311a15.812 15.812 0 0 0-3.363 4.92C.414 11.327 0 13.34 0 15.485c0 2.144.414 4.157 1.243 6.038a15.812 15.812 0 0 0 3.363 4.92c1.413 1.398 3.07 2.507 4.972 3.327 1.901.82 3.936 1.23 6.103 1.23 2.168 0 4.202-.41 6.104-1.23 1.902-.82 3.559-1.929 4.972-3.327a15.812 15.812 0 0 0 3.363-4.92c.828-1.881 1.243-3.894 1.243-6.039 0-2.144-.415-4.157-1.243-6.039a15.812 15.812 0 0 0-3.363-4.92c-1.413-1.398-3.07-2.501-4.972-3.31C19.883.404 17.849 0 15.68 0zm0 21.791c-4.016 0-6.38-.352-7.091-1.056-.712-.704-1.068-2.455-1.068-5.25 0-2.797.356-4.542 1.068-5.236.711-.694 3.075-1.04 7.091-1.04s6.38.346 7.092 1.04c.712.694 1.068 2.439 1.068 5.235 0 2.796-.356 4.547-1.068 5.251-.712.704-3.076 1.056-7.092 1.056z"/></svg>